<svg width="64" height="58" viewBox="0 0 64 58" fill="none" xmlns="http://www.w3.org/2000/svg">
<path d="M56.87 36.4311C56.2491 36.1101 55.5518 35.9663 54.8546 36.0156C54.1574 36.0648 53.4872 36.3051 52.9175 36.7101L44.494 43.1551C43.652 42.1411 41.864 41.7251 39.8905 41.2706C36.3374 40.5681 32.9088 39.3398 29.718 37.6261C25.1 35.0611 21.39 35.2186 18.7585 36.0951C18.5222 35.4832 18.1074 34.9564 17.568 34.5832C17.0286 34.21 16.3894 34.0075 15.7335 34.0021H6C5.73478 34.0021 5.48043 34.1074 5.29289 34.2949C5.10536 34.4825 5 34.7368 5 35.0021C5 35.2673 5.10536 35.5216 5.29289 35.7092C5.48043 35.8967 5.73478 36.0021 6 36.0021H11V54.0021H1C0.734784 54.0021 0.48043 54.1074 0.292893 54.2949C0.105357 54.4825 0 54.7368 0 55.0021C0 55.2673 0.105357 55.5216 0.292893 55.7092C0.48043 55.8967 0.734784 56.0021 1 56.0021H15.7335C16.4313 55.9954 17.1089 55.7664 17.6677 55.3484C18.2265 54.9304 18.6375 54.3451 18.841 53.6776L22.302 52.5536C22.7648 52.4025 23.2676 52.4327 23.709 52.6381L34.3345 57.5471C35.0931 57.8996 35.9293 58.0519 36.7634 57.9895C37.5976 57.9271 38.4018 57.652 39.0995 57.1906C39.1195 57.1776 39.1395 57.1631 39.158 57.1491L57.237 43.3401C57.8106 42.9477 58.2736 42.4143 58.5815 41.7913C58.8893 41.1682 59.0316 40.4764 58.9948 39.7824C58.9579 39.0885 58.7431 38.4156 58.371 37.8287C57.9988 37.2418 57.482 36.7604 56.87 36.4311ZM17 52.6481C17.0107 52.9952 16.8834 53.3324 16.6461 53.586C16.4087 53.8396 16.0806 53.9888 15.7335 54.0011H13V36.0021H15.7335C16.0806 36.0143 16.4087 36.1636 16.6461 36.4171C16.8834 36.6707 17.0107 37.0079 17 37.3551V52.6481ZM56.1085 41.6881C56.0885 41.7011 56.0685 41.7156 56.05 41.7296L37.975 55.5356C37.5626 55.8023 37.0894 55.9601 36.5994 55.9943C36.1095 56.0285 35.6189 55.9379 35.1735 55.7311L24.5485 50.8221C23.6498 50.4049 22.6265 50.3436 21.6845 50.6506L19 51.5231V38.0936C21.1965 37.2636 24.4745 37.0016 28.7465 39.3741C32.0995 41.1825 35.7045 42.4786 39.4415 43.2191C42.4895 43.9216 43.0855 44.1941 42.9845 44.8401C42.9 45.2854 42.7083 45.7034 42.4259 46.058C42.1436 46.4126 41.7791 46.693 41.364 46.8751C38.956 48.1151 34.7775 47.4826 30.1885 45.1831C30.071 45.123 29.9427 45.0868 29.8112 45.0766C29.6796 45.0664 29.5473 45.0823 29.4219 45.1234C29.2965 45.1645 29.1805 45.2301 29.0805 45.3163C28.9806 45.4025 28.8987 45.5076 28.8396 45.6256C28.7804 45.7436 28.7452 45.8721 28.736 46.0037C28.7268 46.1354 28.7437 46.2676 28.7858 46.3926C28.8279 46.5177 28.8944 46.6332 28.9814 46.7325C29.0683 46.8318 29.1741 46.9128 29.2925 46.9711C32.6255 48.6411 35.755 49.4961 38.368 49.4961C39.7205 49.5302 41.0616 49.2412 42.28 48.6531C42.9425 48.3404 43.5246 47.8801 43.9816 47.3075C44.4386 46.735 44.7584 46.0654 44.9165 45.3501L54.095 38.3261C54.3635 38.1389 54.678 38.0287 55.0046 38.0073C55.3312 37.986 55.6575 38.0544 55.948 38.2051C56.2557 38.3681 56.5149 38.6096 56.6992 38.905C56.8835 39.2005 56.9864 39.5395 56.9975 39.8876C57.0212 40.2395 56.9514 40.5914 56.7953 40.9076C56.6391 41.2239 56.4022 41.4928 56.1085 41.6881Z" fill="#005092"/>
<path d="M63 19.0026H61.5305L57.1665 6.24656C57.598 5.90597 57.9431 5.46848 58.1739 4.96957C58.4047 4.47065 58.5146 3.92436 58.4948 3.37502C58.4749 2.82567 58.3259 2.28874 58.0597 1.80777C57.7935 1.3268 57.4178 0.915341 56.9628 0.606768C56.5079 0.298195 55.9867 0.101199 55.4414 0.0317574C54.8961 -0.0376837 54.3421 0.0223865 53.8243 0.207095C53.3066 0.391804 52.8397 0.69595 52.4615 1.09486C52.0832 1.49377 51.8044 1.97622 51.6475 2.50306H43.8525C43.6374 1.78091 43.195 1.14751 42.5909 0.697119C41.9868 0.246729 41.2535 0.00342902 40.5 0.00342902C39.7465 0.00342902 39.0132 0.246729 38.4091 0.697119C37.805 1.14751 37.3626 1.78091 37.1475 2.50306H29.3525C29.196 1.97567 28.9173 1.49263 28.539 1.09315C28.1608 0.693677 27.6937 0.38903 27.1756 0.203945C26.6576 0.0188606 26.1032 -0.0414439 25.5574 0.0279277C25.0117 0.0972993 24.49 0.294392 24.0347 0.603202C23.5795 0.912013 23.2034 1.32384 22.9372 1.80524C22.6709 2.28664 22.5219 2.82404 22.5023 3.37382C22.4827 3.9236 22.593 4.47025 22.8243 4.96939C23.0556 5.46854 23.4014 5.9061 23.8335 6.24656L19.47 19.0026H18C17.7348 19.0026 17.4804 19.1079 17.2929 19.2954C17.1054 19.483 17 19.7373 17 20.0026C17 22.3895 17.9482 24.6787 19.636 26.3665C21.3239 28.0543 23.6131 29.0026 26 29.0026C28.3869 29.0026 30.6761 28.0543 32.364 26.3665C34.0518 24.6787 35 22.3895 35 20.0026C35 19.7373 34.8946 19.483 34.7071 19.2954C34.5196 19.1079 34.2652 19.0026 34 19.0026H32.5305L28.1665 6.24656C28.7313 5.80077 29.1453 5.1921 29.3525 4.50306H37.1475C37.3147 5.05906 37.617 5.56496 38.0276 5.97549C38.4381 6.38603 38.944 6.6884 39.5 6.85556V26.0026H36C35.4697 26.0031 34.9613 26.214 34.5864 26.5889C34.2114 26.9639 34.0005 27.4723 34 28.0026V30.0026H33.5C32.9697 30.0031 32.4613 30.214 32.0864 30.5889C31.7114 30.9639 31.5005 31.4723 31.5 32.0026V35.0026C31.5 35.2678 31.6054 35.5221 31.7929 35.7097C31.9804 35.8972 32.2348 36.0026 32.5 36.0026C32.7652 36.0026 33.0196 35.8972 33.2071 35.7097C33.3946 35.5221 33.5 35.2678 33.5 35.0026V32.0026H47.5V35.0026C47.5 35.2678 47.6054 35.5221 47.7929 35.7097C47.9804 35.8972 48.2348 36.0026 48.5 36.0026C48.7652 36.0026 49.0196 35.8972 49.2071 35.7097C49.3946 35.5221 49.5 35.2678 49.5 35.0026V32.0026C49.4995 31.4723 49.2886 30.9639 48.9136 30.5889C48.5387 30.214 48.0303 30.0031 47.5 30.0026H47V28.0026C46.9995 27.4723 46.7886 26.9639 46.4136 26.5889C46.0387 26.214 45.5303 26.0031 45 26.0026H41.5V6.85556C42.056 6.6884 42.5619 6.38603 42.9724 5.97549C43.383 5.56496 43.6853 5.05906 43.8525 4.50306H51.6475C51.8547 5.1921 52.2687 5.80077 52.8335 6.24656L48.47 19.0026H47C46.7348 19.0026 46.4804 19.1079 46.2929 19.2954C46.1054 19.483 46 19.7373 46 20.0026C46 22.3895 46.9482 24.6787 48.636 26.3665C50.3239 28.0543 52.6131 29.0026 55 29.0026C57.3869 29.0026 59.6761 28.0543 61.364 26.3665C63.0518 24.6787 64 22.3895 64 20.0026C64 19.7373 63.8946 19.483 63.7071 19.2954C63.5196 19.1079 63.2652 19.0026 63 19.0026ZM26 2.00256C26.2967 2.00256 26.5867 2.09053 26.8334 2.25535C27.08 2.42017 27.2723 2.65444 27.3858 2.92853C27.4993 3.20262 27.5291 3.50422 27.4712 3.79519C27.4133 4.08616 27.2704 4.35344 27.0607 4.56322C26.8509 4.773 26.5836 4.91586 26.2926 4.97373C26.0017 5.03161 25.7001 5.00191 25.426 4.88838C25.1519 4.77484 24.9176 4.58259 24.7528 4.33591C24.588 4.08924 24.5 3.79923 24.5 3.50256C24.5004 3.10485 24.6586 2.72355 24.9398 2.44233C25.221 2.16112 25.6023 2.00295 26 2.00256ZM32.9285 21.0026C32.6877 22.6684 31.8548 24.1917 30.5824 25.2934C29.3099 26.3952 27.6831 27.0016 26 27.0016C24.3169 27.0016 22.6901 26.3952 21.4176 25.2934C20.1452 24.1917 19.3123 22.6684 19.0715 21.0026H32.9285ZM30.417 19.0026H21.583L25.694 6.98756C25.795 6.99606 25.8965 7.00256 26 7.00256C26.1035 7.00256 26.205 6.99606 26.306 6.98756L30.417 19.0026ZM45 28.0026V30.0026H36V28.0026H45ZM40.5 5.00256C40.2033 5.00256 39.9133 4.91458 39.6666 4.74976C39.42 4.58494 39.2277 4.35067 39.1142 4.07658C39.0006 3.80249 38.9709 3.50089 39.0288 3.20992C39.0867 2.91895 39.2296 2.65167 39.4393 2.4419C39.6491 2.23212 39.9164 2.08926 40.2074 2.03138C40.4983 1.9735 40.7999 2.00321 41.074 2.11674C41.3481 2.23027 41.5824 2.42253 41.7472 2.6692C41.912 2.91587 42 3.20588 42 3.50256C41.9996 3.90026 41.8414 4.28156 41.5602 4.56278C41.279 4.844 40.8977 5.00216 40.5 5.00256ZM55 2.00256C55.2967 2.00256 55.5867 2.09053 55.8334 2.25535C56.08 2.42017 56.2723 2.65444 56.3858 2.92853C56.4994 3.20262 56.5291 3.50422 56.4712 3.79519C56.4133 4.08616 56.2704 4.35344 56.0607 4.56322C55.8509 4.773 55.5836 4.91586 55.2926 4.97373C55.0017 5.03161 54.7001 5.00191 54.426 4.88838C54.1519 4.77484 53.9176 4.58259 53.7528 4.33591C53.588 4.08924 53.5 3.79923 53.5 3.50256C53.5004 3.10485 53.6586 2.72355 53.9398 2.44233C54.221 2.16112 54.6023 2.00295 55 2.00256ZM54.694 6.98756C54.795 6.99606 54.8965 7.00256 55 7.00256C55.1035 7.00256 55.205 6.99606 55.306 6.98756L59.417 19.0026H50.583L54.694 6.98756ZM55 27.0026C53.3173 27.0003 51.6916 26.393 50.4196 25.2915C49.1476 24.1899 48.3141 22.6676 48.0715 21.0026H61.9285C61.6859 22.6676 60.8524 24.1899 59.5804 25.2915C58.3084 26.393 56.6827 27.0003 55 27.0026Z" fill="#005092"/>
</svg>
