<svg width="80" height="80" viewBox="0 0 80 80" fill="none" xmlns="http://www.w3.org/2000/svg">
<path d="M75.5742 73.0749C75.1953 70.2705 73.9913 67.642 72.1153 65.5233C70.2393 63.4046 67.7759 61.8913 65.038 61.1756V58.4574C67.7881 58.3217 70.3811 57.135 72.2814 55.1424C74.1817 53.1497 75.2441 50.5034 75.2492 47.7499V47.1824C75.2493 47.0388 75.2211 46.8965 75.1662 46.7638C75.1112 46.6311 75.0307 46.5104 74.9291 46.4089C74.8275 46.3073 74.7069 46.2267 74.5742 46.1718C74.4414 46.1169 74.2991 46.0886 74.1555 46.0887H73.588C72.7658 46.0914 71.9466 46.1889 71.1467 46.3793C72.4242 45.3776 73.4572 44.0986 74.1679 42.6391C74.8786 41.1796 75.2484 39.5777 75.2492 37.9543V37.3868C75.2492 37.0967 75.134 36.8185 74.9289 36.6134C74.7238 36.4083 74.4456 36.2931 74.1555 36.2931H73.588C72.7653 36.296 71.9458 36.3937 71.1455 36.5843C72.4236 35.5824 73.4571 34.303 74.1681 32.8429C74.879 31.3828 75.2487 29.7802 75.2492 28.1562V27.5887C75.2493 27.445 75.2211 27.3028 75.1662 27.17C75.1112 27.0373 75.0307 26.9167 74.9291 26.8151C74.8275 26.7135 74.7069 26.633 74.5742 26.578C74.4414 26.5231 74.2991 26.4949 74.1555 26.4949H73.588C71.9301 26.4964 70.2951 26.8827 68.8118 27.6233C67.3285 28.3639 66.0373 29.4387 65.0399 30.7631V29.8081L65.5342 29.3137C67.435 27.4083 68.5024 24.8269 68.5024 22.1356C68.5024 19.4443 67.435 16.8628 65.5342 14.9574L64.7217 14.1449C64.5164 13.9403 64.2382 13.8253 63.9483 13.8253C63.6584 13.8253 63.3802 13.9403 63.1749 14.1449L62.3624 14.9574C60.4613 16.8626 59.3937 19.4442 59.3937 22.1356C59.3937 24.827 60.4613 27.4085 62.3624 29.3137L62.8567 29.8081V30.7631C61.8591 29.4388 60.5678 28.364 59.0844 27.6234C57.601 26.8828 55.966 26.4965 54.308 26.4949H53.7405C53.5968 26.4949 53.4546 26.5231 53.3218 26.578C53.1891 26.633 53.0685 26.7135 52.9669 26.8151C52.8653 26.9167 52.7848 27.0373 52.7298 27.17C52.6749 27.3028 52.6467 27.445 52.6467 27.5887V28.1562C52.6476 29.7798 53.0175 31.3819 53.7285 32.8415C54.4394 34.3012 55.4728 35.5801 56.7505 36.5818C55.9502 36.3912 55.1306 36.2935 54.308 36.2906H53.7405C53.4504 36.2906 53.1722 36.4058 52.9671 36.6109C52.762 36.816 52.6467 37.0942 52.6467 37.3843V37.9518C52.6471 39.5743 53.016 41.1756 53.7256 42.6347C54.4352 44.0939 55.467 45.3728 56.743 46.3749C55.9431 46.1846 55.124 46.087 54.3017 46.0843H53.7342C53.5906 46.0842 53.4483 46.1125 53.3156 46.1674C53.1828 46.2223 53.0622 46.3029 52.9607 46.4045C52.8591 46.5061 52.7785 46.6267 52.7236 46.7594C52.6686 46.8922 52.6404 47.0344 52.6405 47.1781V47.7499C52.645 50.5037 53.7069 53.1504 55.607 55.1436C57.5071 57.1367 60.1001 58.3239 62.8505 58.4599V60.8099C62.4701 60.7767 62.0886 60.7592 61.7067 60.7574C59.2262 60.7563 56.793 61.4363 54.6724 62.7231C53.2772 60.3033 51.3094 58.263 48.9418 56.781C46.5743 55.299 43.8792 54.4207 41.093 54.2231V51.8293C43.91 51.7842 46.5966 50.6344 48.5741 48.6275C50.5515 46.6207 51.6615 43.9173 51.6649 41.0999V40.1706C51.6649 39.8805 51.5496 39.6023 51.3445 39.3972C51.1394 39.1921 50.8612 39.0768 50.5711 39.0768H49.6417C48.9995 39.0796 48.3587 39.1402 47.7274 39.2581C48.958 38.2528 49.9498 36.9865 50.6308 35.5508C51.3118 34.1151 51.665 32.5459 51.6649 30.9568V30.0274C51.6649 29.7374 51.5496 29.4592 51.3445 29.254C51.1394 29.0489 50.8612 28.9337 50.5711 28.9337H49.6417C48.9997 28.9365 48.3592 28.997 47.728 29.1143C48.9585 28.1091 49.9501 26.8428 50.6311 25.4073C51.3121 23.9717 51.6654 22.4026 51.6655 20.8137V19.8843C51.6655 19.5942 51.5503 19.316 51.3451 19.1109C51.14 18.9058 50.8618 18.7906 50.5717 18.7906H49.6417C47.9838 18.792 46.3488 19.1782 44.8654 19.9187C43.382 20.6592 42.0906 21.7339 41.093 23.0581V22.1662L41.6161 21.6431C42.5889 20.6706 43.3606 19.516 43.8871 18.2452C44.4135 16.9744 44.6845 15.6123 44.6845 14.2368C44.6845 12.8613 44.4135 11.4992 43.8871 10.2285C43.3606 8.95769 42.5889 7.80307 41.6161 6.83057L40.7724 5.98682C40.5635 5.7892 40.2868 5.67908 39.9992 5.67908C39.7117 5.67908 39.435 5.7892 39.2261 5.98682L38.3824 6.83057C37.4096 7.80307 36.6379 8.95769 36.1114 10.2285C35.5849 11.4992 35.314 12.8613 35.314 14.2368C35.314 15.6123 35.5849 16.9744 36.1114 18.2452C36.6379 19.516 37.4096 20.6706 38.3824 21.6431L38.9055 22.1662V23.0581C37.9079 21.7339 36.6165 20.6592 35.1331 19.9187C33.6497 19.1782 32.0147 18.792 30.3567 18.7906H29.4274C29.1373 18.7906 28.8591 18.9058 28.654 19.1109C28.4489 19.316 28.3336 19.5942 28.3336 19.8843V20.8124C28.3337 22.4014 28.687 23.9704 29.368 25.406C30.049 26.8416 31.0406 28.1078 32.2711 29.1131C31.6399 28.9957 30.9994 28.9353 30.3574 28.9324H29.4274C29.1373 28.9324 28.8591 29.0477 28.654 29.2528C28.4489 29.4579 28.3336 29.7361 28.3336 30.0262V30.9556C28.3335 32.5446 28.6867 34.1138 29.3677 35.5495C30.0487 36.9853 31.0404 38.2516 32.2711 39.2568C31.6397 39.139 30.999 39.0783 30.3567 39.0756H29.4274C29.1373 39.0756 28.8591 39.1908 28.654 39.3959C28.4489 39.601 28.3336 39.8792 28.3336 40.1693V41.0999C28.3374 43.9171 29.4475 46.6201 31.4249 48.6267C33.4022 50.6333 36.0887 51.783 38.9055 51.8281V54.2218C36.1193 54.4194 33.4242 55.2977 31.0566 56.7797C28.689 58.2617 26.7213 60.3021 25.3261 62.7218C23.2055 61.435 20.7723 60.7551 18.2917 60.7562C17.9061 60.7562 17.5261 60.7774 17.148 60.8087V58.4587C19.8981 58.3227 22.491 57.1356 24.391 55.1428C26.2911 53.1499 27.3532 50.5034 27.358 47.7499V47.1824C27.3581 47.0388 27.3298 46.8965 27.2749 46.7638C27.22 46.6311 27.1394 46.5104 27.0378 46.4089C26.9362 46.3073 26.8156 46.2267 26.6829 46.1718C26.5502 46.1169 26.4079 46.0886 26.2642 46.0887H25.6967C24.8745 46.0914 24.0554 46.1889 23.2555 46.3793C24.5329 45.3776 25.566 44.0986 26.2767 42.6391C26.9874 41.1796 27.3571 39.5777 27.358 37.9543V37.3868C27.358 37.0967 27.2428 36.8185 27.0376 36.6134C26.8325 36.4083 26.5543 36.2931 26.2642 36.2931H25.6967C24.8741 36.296 24.0545 36.3937 23.2542 36.5843C24.5323 35.5824 25.5659 34.303 26.2768 32.8429C26.9878 31.3828 27.3575 29.7802 27.358 28.1562V27.5887C27.3581 27.445 27.3298 27.3028 27.2749 27.17C27.22 27.0373 27.1394 26.9167 27.0378 26.8151C26.9362 26.7135 26.8156 26.633 26.6829 26.578C26.5502 26.5231 26.4079 26.4949 26.2642 26.4949H25.6967C24.0387 26.4965 22.4037 26.8828 20.9203 27.6234C19.4369 28.364 18.1456 29.4388 17.148 30.7631V29.8081L17.6424 29.3137C19.5434 27.4085 20.6111 24.827 20.6111 22.1356C20.6111 19.4442 19.5434 16.8626 17.6424 14.9574L16.8299 14.1449C16.6245 13.9403 16.3464 13.8253 16.0564 13.8253C15.7665 13.8253 15.4884 13.9403 15.283 14.1449L14.4705 14.9574C12.5698 16.8628 11.5023 19.4443 11.5023 22.1356C11.5023 24.8269 12.5698 27.4083 14.4705 29.3137L14.9649 29.8081V30.7631C13.9675 29.4387 12.6763 28.3639 11.193 27.6233C9.70965 26.8827 8.07468 26.4964 6.41674 26.4949H5.84487C5.70121 26.4949 5.55895 26.5231 5.42621 26.578C5.29347 26.633 5.17287 26.7135 5.07128 26.8151C4.9697 26.9167 4.88914 27.0373 4.83421 27.17C4.77927 27.3028 4.75103 27.445 4.75112 27.5887V28.1562C4.75203 29.7798 5.12192 31.3819 5.83284 32.8415C6.54377 34.3012 7.57713 35.5801 8.85487 36.5818C8.05459 36.3912 7.23502 36.2935 6.41237 36.2906H5.84487C5.55479 36.2906 5.27659 36.4058 5.07147 36.6109C4.86635 36.816 4.75112 37.0942 4.75112 37.3843V37.9518C4.75226 39.5749 5.12214 41.1764 5.83283 42.6356C6.54352 44.0948 7.57645 45.3734 8.85362 46.3749C8.05374 46.1846 7.23458 46.087 6.41237 46.0843H5.84487C5.70121 46.0842 5.55895 46.1125 5.42621 46.1674C5.29347 46.2223 5.17287 46.3029 5.07128 46.4045C4.9697 46.5061 4.88914 46.6267 4.83421 46.7594C4.77927 46.8922 4.75103 47.0344 4.75112 47.1781V47.7499C4.75624 50.5031 5.81841 53.1492 7.71829 55.1418C9.61818 57.1343 12.2107 58.3213 14.9605 58.4574V61.1756C12.2226 61.8913 9.75916 63.4046 7.88315 65.5233C6.00714 67.642 4.8032 70.2705 4.42424 73.0749C4.40087 73.2306 4.41135 73.3895 4.45498 73.5408C4.49861 73.692 4.57436 73.8321 4.67706 73.9514C4.77976 74.0707 4.90699 74.1664 5.05006 74.2321C5.19314 74.2978 5.3487 74.3318 5.50612 74.3318H74.4924C74.6498 74.3318 74.8053 74.2978 74.9484 74.2321C75.0915 74.1664 75.2187 74.0707 75.3214 73.9514C75.4241 73.8321 75.4999 73.692 75.5435 73.5408C75.5871 73.3895 75.5976 73.2306 75.5742 73.0749ZM65.0549 56.2793C65.1898 54.205 66.0747 52.2505 67.5445 50.7806C69.0143 49.3107 70.9687 48.4256 73.043 48.2906C72.9081 50.3649 72.0232 52.3193 70.5534 53.7893C69.0836 55.2592 67.1292 56.1443 65.0549 56.2793ZM65.038 50.3543V48.6612C65.683 48.631 66.3239 48.5428 66.953 48.3974C66.2342 48.9658 65.5907 49.6234 65.038 50.3543ZM65.0549 46.4837C65.1898 44.4094 66.0747 42.4549 67.5445 40.985C69.0143 39.5151 70.9687 38.63 73.043 38.4949C72.9081 40.5693 72.0232 42.5237 70.5534 43.9937C69.0836 45.4636 67.1292 46.3486 65.0549 46.4837ZM65.038 40.5587V38.8649C65.6836 38.8349 66.3252 38.7464 66.9549 38.6006C66.2353 39.1692 65.5911 39.8272 65.038 40.5587ZM73.043 28.6993C72.908 30.7736 72.023 32.7278 70.5532 34.1976C69.0834 35.6674 67.1291 36.5524 65.0549 36.6874C65.1899 34.6132 66.0749 32.6589 67.5447 31.1891C69.0145 29.7193 70.9688 28.8344 73.043 28.6993ZM63.9024 16.5043L63.9442 16.4631L63.9855 16.5043C65.4135 17.9375 66.2429 19.8602 66.3055 21.8825C66.368 23.9047 65.6591 25.875 64.3224 27.3937C64.079 27.2987 63.8088 27.2987 63.5655 27.3937C62.2288 25.875 61.5198 23.9047 61.5824 21.8825C61.645 19.8602 62.4744 17.9375 63.9024 16.5043ZM54.8449 28.6993C56.9191 28.8344 58.8734 29.7193 60.3432 31.1891C61.813 32.6589 62.6979 34.6132 62.833 36.6874C60.7588 36.5524 58.8045 35.6674 57.3347 34.1976C55.8649 32.7278 54.9799 30.7736 54.8449 28.6993ZM62.8505 38.8649V40.5587C62.297 39.8273 61.6526 39.1693 60.933 38.6006C61.5629 38.7464 62.2046 38.8349 62.8505 38.8649ZM54.8449 38.4949C56.9192 38.63 58.8736 39.5151 60.3434 40.985C61.8132 42.4549 62.6981 44.4094 62.833 46.4837C60.7587 46.3486 58.8043 45.4636 57.3345 43.9937C55.8647 42.5237 54.9798 40.5693 54.8449 38.4949ZM62.8505 48.6612V50.3543C62.298 49.6236 61.6549 48.9661 60.9367 48.3974C61.5654 48.5427 62.2059 48.631 62.8505 48.6612ZM54.8449 48.2906C56.9192 48.4256 58.8736 49.3107 60.3434 50.7806C61.8132 52.2505 62.6981 54.205 62.833 56.2793C60.7587 56.1443 58.8043 55.2592 57.3345 53.7893C55.8647 52.3193 54.9798 50.3649 54.8449 48.2906ZM17.1655 56.2793C17.3004 54.205 18.1853 52.2505 19.6551 50.7806C21.1249 49.3107 23.0793 48.4256 25.1536 48.2906C25.0187 50.3649 24.1338 52.3193 22.664 53.7893C21.1942 55.2592 19.2398 56.1443 17.1655 56.2793ZM17.148 50.3543V48.6612C17.7932 48.6311 18.4343 48.5428 19.0636 48.3974C18.3448 48.966 17.7011 49.6235 17.148 50.3543ZM17.1655 46.4837C17.3004 44.4094 18.1853 42.4549 19.6551 40.985C21.1249 39.5151 23.0793 38.63 25.1536 38.4949C25.0187 40.5693 24.1338 42.5237 22.664 43.9937C21.1942 45.4636 19.2398 46.3486 17.1655 46.4837ZM17.148 40.5587V38.8649C17.7938 38.8349 18.4356 38.7464 19.0655 38.6006C18.3459 39.1693 17.7015 39.8273 17.148 40.5587ZM25.1536 28.6993C25.0186 30.7736 24.1336 32.7278 22.6638 34.1976C21.194 35.6674 19.2397 36.5524 17.1655 36.6874C17.3005 34.6132 18.1855 32.6589 19.6553 31.1891C21.1251 29.7193 23.0794 28.8344 25.1536 28.6993ZM16.013 16.5043L16.0542 16.4631L16.0961 16.5043C17.5241 17.9375 18.3535 19.8602 18.4161 21.8825C18.4787 23.9047 17.7697 25.875 16.433 27.3937C16.1896 27.2987 15.9195 27.2987 15.6761 27.3937C14.3394 25.875 13.6305 23.9047 13.693 21.8825C13.7556 19.8602 14.585 17.9375 16.013 16.5043ZM6.95549 28.6993C9.02972 28.8344 10.984 29.7193 12.4538 31.1891C13.9236 32.6589 14.8086 34.6132 14.9436 36.6874C12.8694 36.5524 10.9151 35.6674 9.4453 34.1976C7.97549 32.7278 7.09053 30.7736 6.95549 28.6993ZM14.9605 38.8649V40.5587C14.4074 39.8272 13.7632 39.1692 13.0436 38.6006C13.6733 38.7464 14.3149 38.8349 14.9605 38.8649ZM6.95549 38.4949C9.02982 38.63 10.9842 39.5151 12.454 40.985C13.9238 42.4549 14.8087 44.4094 14.9436 46.4837C12.8693 46.3486 10.9149 45.4636 9.4451 43.9937C7.97528 42.5237 7.09039 40.5693 6.95549 38.4949ZM14.9605 48.6612V50.3543C14.4078 49.6234 13.7643 48.9658 13.0455 48.3974C13.6746 48.5428 14.3155 48.631 14.9605 48.6612ZM6.95549 48.2906C9.02982 48.4256 10.9842 49.3107 12.454 50.7806C13.9238 52.2505 14.8087 54.205 14.9436 56.2793C12.8693 56.1443 10.9149 55.2592 9.4451 53.7893C7.97528 52.3193 7.09039 50.3649 6.95549 48.2906ZM41.0949 49.6474C41.1401 47.4389 42.0375 45.3333 43.5995 43.7712C45.1614 42.2092 47.2669 41.3116 49.4755 41.2662C49.4301 43.4747 48.5326 45.5802 46.9707 47.1422C45.4088 48.7043 43.3034 49.6019 41.0949 49.6474ZM41.0949 43.3449V41.6843C41.6819 41.6747 42.2672 41.617 42.8449 41.5118C42.1911 42.0521 41.6031 42.6674 41.093 43.3449H41.0949ZM41.0949 39.5037C41.1408 37.2956 42.0386 35.1908 43.6005 33.6293C45.1624 32.0677 47.2674 31.1704 49.4755 31.1249C49.4295 33.333 48.5317 35.4379 46.9699 36.9994C45.408 38.5609 43.303 39.4582 41.0949 39.5037ZM41.0949 33.2018V31.5418C41.6819 31.5323 42.2672 31.4746 42.8449 31.3693C42.1912 31.9095 41.6033 32.5246 41.093 33.2018H41.0949ZM49.4755 20.9793C49.4294 23.1877 48.5317 25.2928 46.9699 26.8547C45.4082 28.4167 43.3032 29.3148 41.0949 29.3612C41.14 27.1526 42.0375 25.0469 43.5994 23.4848C45.1614 21.9226 47.2669 21.0248 49.4755 20.9793ZM37.5024 14.2374C37.4994 13.149 37.7124 12.0708 38.129 11.0653C38.5456 10.0597 39.1574 9.14679 39.9292 8.37932L39.9992 8.3087L40.0692 8.37932C41.5632 9.87046 42.4302 11.8765 42.4926 13.9864C42.555 16.0962 41.808 18.15 40.4049 19.7268C40.1444 19.6207 39.8528 19.6207 39.5924 19.7268C38.2435 18.2168 37.4993 16.2622 37.5024 14.2374ZM30.523 20.9793C32.7316 21.0248 34.8371 21.9226 36.3991 23.4848C37.961 25.0469 38.8584 27.1526 38.9036 29.3612C36.6953 29.3148 34.5903 28.4167 33.0286 26.8547C31.4668 25.2928 30.5691 23.1877 30.523 20.9793ZM38.9055 31.5418V33.2018C38.3958 32.5247 37.8085 31.9096 37.1555 31.3693C37.7331 31.4746 38.3184 31.5323 38.9055 31.5418ZM30.523 31.1249C32.7311 31.1704 34.8361 32.0677 36.398 33.6293C37.9599 35.1908 38.8576 37.2956 38.9036 39.5037C36.6955 39.4582 34.5905 38.5609 33.0286 36.9994C31.4667 35.4379 30.569 33.333 30.523 31.1249ZM38.9055 41.6874V43.3481C38.3959 42.6706 37.8086 42.0554 37.1555 41.5149C37.7332 41.6191 38.3185 41.6757 38.9055 41.6843V41.6874ZM30.523 41.2693C32.7316 41.3147 34.837 42.2123 36.399 43.7744C37.961 45.3364 38.8584 47.442 38.9036 49.6506C36.6946 49.605 34.5887 48.7069 33.0267 47.1442C31.4647 45.5815 30.5675 43.4753 30.523 41.2662V41.2693ZM6.83549 72.1474C7.36584 69.8959 8.53646 67.8459 10.2061 66.2449C11.8757 64.6439 13.973 63.5603 16.2449 63.1249C16.2636 63.1218 16.283 63.1181 16.3017 63.1137C17.8269 62.8468 19.3903 62.892 20.8974 63.2465C22.4046 63.601 23.8242 64.2575 25.0705 65.1762C25.1989 65.2703 25.3462 65.3353 25.5023 65.3666C25.6584 65.3979 25.8194 65.3948 25.9742 65.3574C26.1289 65.32 26.2736 65.2493 26.3982 65.1502C26.5228 65.0511 26.6243 64.9261 26.6955 64.7837C27.8914 62.2672 29.7764 60.1414 32.1317 58.653C34.4871 57.1646 37.2162 56.3745 40.0024 56.3745C42.7886 56.3745 45.5177 57.1646 47.873 58.653C50.2283 60.1414 52.1133 62.2672 53.3092 64.7837C53.3805 64.9256 53.4819 65.0502 53.6062 65.149C53.7306 65.2478 53.8749 65.3183 54.0293 65.3556C54.1836 65.393 54.3442 65.3963 54.5 65.3653C54.6557 65.3343 54.8028 65.2698 54.9311 65.1762C56.1781 64.257 57.5985 63.6002 59.1066 63.2457C60.6147 62.8912 62.179 62.8463 63.7049 63.1137L63.7492 63.1249C66.0217 63.5594 68.1198 64.6423 69.7902 66.243C71.4607 67.8437 72.6321 69.8937 73.163 72.1456L6.83549 72.1474Z" fill="white"/>
</svg>
