<svg width="31" height="8" viewBox="0 0 31 8" fill="none" xmlns="http://www.w3.org/2000/svg">
<path d="M0.5 3.18201C0.223858 3.18201 0 3.40586 0 3.68201C0 3.95815 0.223858 4.18201 0.5 4.18201V3.68201V3.18201ZM30.8536 4.03556C31.0488 3.8403 31.0488 3.52372 30.8536 3.32845L27.6716 0.146473C27.4763 -0.0487893 27.1597 -0.0487893 26.9645 0.146473C26.7692 0.341735 26.7692 0.658318 26.9645 0.85358L29.7929 3.68201L26.9645 6.51043C26.7692 6.7057 26.7692 7.02228 26.9645 7.21754C27.1597 7.4128 27.4763 7.4128 27.6716 7.21754L30.8536 4.03556ZM0.5 3.68201V4.18201H30.5V3.68201V3.18201H0.5V3.68201Z" fill="#005092"/>
</svg>
