<svg width="72" height="72" viewBox="0 0 72 72" fill="none" xmlns="http://www.w3.org/2000/svg">
<path d="M43.5589 70.875C46.4309 70.917 49.2783 70.3415 51.9086 69.1875C54.8965 67.9406 57.4426 65.8277 59.2189 63.1208C60.9952 60.414 61.9203 57.2373 61.875 54C61.875 43.875 59.625 41.625 56.25 34.875C52.875 28.125 56.25 21.375 56.25 21.375C53.5516 22.059 51.1692 23.6472 49.5 25.875C49.5 2.25 33.75 1.125 33.75 1.125C34.69 3.73435 34.9764 6.53426 34.5842 9.27988C34.1919 12.0255 33.133 14.6332 31.5 16.875C25.875 24.75 20.25 29.25 18 38.25C18 38.25 13.5 36 14.625 31.5C14.625 31.5 10.125 39.375 10.125 51.75C10.125 65.3197 20.9947 69.3 26.3452 70.4362C27.7683 70.733 29.2184 70.88 30.672 70.875H43.5589Z" fill="#FEBD55"/>
<path d="M27.9473 70.875C27.9473 70.875 16.3418 66.5235 16.3418 53.4668C16.3418 38.961 26.4083 33.75 26.4083 33.75C26.4083 33.75 23.5958 38.961 26.4972 40.4111C26.4972 40.4111 31.3515 24.6015 44.4083 20.25C44.4083 20.25 39.8487 25.0459 42.75 33.75C45.6514 42.4541 55.4805 44.4083 55.6583 54V55.125C55.7723 58.3827 54.9105 61.6002 53.1833 64.3646C50.9468 67.8488 48.3649 70.875 42.4542 70.875H27.9473Z" fill="#FC9E20"/>
<path d="M29.25 70.875C26.5869 69.7615 24.312 67.8862 22.7108 65.4845C21.1096 63.0827 20.2535 60.2615 20.25 57.375C20.25 46.125 25.875 41.625 25.875 41.625C25.875 41.625 25.875 46.125 28.125 47.25C28.125 47.25 30.375 31.5 40.5 28.125C40.5 28.125 37.125 30.375 39.375 37.125C41.625 43.875 51.75 46.125 51.75 57.375V58.3549C51.7898 60.9907 51.0751 63.583 49.6901 65.826C48.7402 67.4038 47.3896 68.7021 45.7754 69.5889C44.1613 70.4757 42.3412 70.9194 40.5 70.875H29.25Z" fill="#E03E3E"/>
<path d="M29.25 65.25C29.0275 65.25 28.8101 65.184 28.6251 65.0603C28.4402 64.9367 28.296 64.761 28.2109 64.5555C28.1257 64.35 28.1035 64.1238 28.1468 63.9056C28.1902 63.6874 28.2973 63.487 28.4546 63.3296L41.9546 49.8296C42.1668 49.6247 42.451 49.5113 42.746 49.5139C43.0409 49.5164 43.3231 49.6347 43.5317 49.8433C43.7403 50.0519 43.8586 50.3341 43.8611 50.629C43.8637 50.924 43.7503 51.2082 43.5454 51.4204L30.0454 64.9204C29.8345 65.1314 29.5483 65.2499 29.25 65.25ZM39.375 66.375C38.7075 66.375 38.055 66.1771 37.5 65.8062C36.9449 65.4354 36.5124 64.9083 36.2569 64.2916C36.0015 63.6749 35.9346 62.9963 36.0649 62.3416C36.1951 61.6869 36.5165 61.0855 36.9885 60.6135C37.4605 60.1415 38.0619 59.8201 38.7166 59.6899C39.3713 59.5596 40.0499 59.6265 40.6666 59.8819C41.2833 60.1374 41.8104 60.5699 42.1812 61.125C42.5521 61.68 42.75 62.3325 42.75 63C42.75 63.8951 42.3944 64.7536 41.7615 65.3865C41.1286 66.0194 40.2701 66.375 39.375 66.375ZM39.375 61.875C39.1525 61.875 38.935 61.941 38.75 62.0646C38.565 62.1882 38.4208 62.3639 38.3356 62.5695C38.2505 62.7751 38.2282 63.0013 38.2716 63.2195C38.315 63.4377 38.4222 63.6382 38.5795 63.7955C38.7368 63.9528 38.9373 64.06 39.1555 64.1034C39.3738 64.1468 39.6 64.1245 39.8055 64.0394C40.0111 63.9542 40.1868 63.81 40.3104 63.625C40.434 63.44 40.5 63.2225 40.5 63C40.5 62.7016 40.3815 62.4155 40.1705 62.2045C39.9595 61.9935 39.6734 61.875 39.375 61.875ZM32.625 55.125C31.9575 55.125 31.305 54.9271 30.75 54.5562C30.1949 54.1854 29.7624 53.6583 29.5069 53.0416C29.2515 52.4249 29.1846 51.7463 29.3149 51.0916C29.4451 50.4369 29.7665 49.8355 30.2385 49.3635C30.7105 48.8915 31.3119 48.5701 31.9666 48.4399C32.6213 48.3096 33.2999 48.3765 33.9166 48.6319C34.5333 48.8874 35.0604 49.3199 35.4312 49.875C35.8021 50.43 36 51.0825 36 51.75C36 52.6451 35.6444 53.5036 35.0115 54.1365C34.3786 54.7694 33.5201 55.125 32.625 55.125ZM32.625 50.625C32.4025 50.625 32.185 50.691 32 50.8146C31.815 50.9382 31.6708 51.1139 31.5856 51.3195C31.5005 51.5251 31.4782 51.7513 31.5216 51.9695C31.565 52.1877 31.6722 52.3882 31.8295 52.5455C31.9868 52.7028 32.1873 52.81 32.4055 52.8534C32.6238 52.8968 32.85 52.8745 33.0555 52.7894C33.2611 52.7042 33.4368 52.56 33.5604 52.375C33.684 52.19 33.75 51.9725 33.75 51.75C33.75 51.4516 33.6315 51.1655 33.4205 50.9545C33.2095 50.7435 32.9234 50.625 32.625 50.625Z" fill="#FBFBFB"/>
</svg>
