<svg width="25" height="25" viewBox="0 0 25 25" fill="none" xmlns="http://www.w3.org/2000/svg">
<path fill-rule="evenodd" clip-rule="evenodd" d="M16.2497 4.37545C16.2496 3.36087 16.6021 2.3778 17.2469 1.59449C17.8917 0.811171 18.7887 0.276314 19.7844 0.0814554C20.7801 -0.113403 21.8126 0.0438506 22.7051 0.526304C23.5976 1.00876 24.2947 1.78641 24.6771 2.72618C25.0595 3.66594 25.1033 4.70939 24.8012 5.67792C24.499 6.64646 23.8696 7.47988 23.0208 8.03554C22.1719 8.59119 21.1563 8.83454 20.1477 8.72393C19.1392 8.61332 18.2005 8.15563 17.4922 7.4292L12.0872 10.2629C12.3534 10.9567 12.4997 11.7129 12.4997 12.5004C12.5005 13.2653 12.3607 14.0237 12.0872 14.7379L17.4922 17.5717C18.2263 16.8197 19.2065 16.3571 20.2536 16.2684C21.3007 16.1797 22.3448 16.4709 23.1949 17.0887C24.0449 17.7065 24.6443 18.6096 24.8832 19.6329C25.1222 20.6563 24.9848 21.7314 24.4963 22.6618C24.0077 23.5922 23.2005 24.3157 22.2224 24.6999C21.2443 25.0841 20.1606 25.1034 19.1694 24.7543C18.1782 24.4052 17.3458 23.711 16.8244 22.7986C16.303 21.8862 16.1274 20.8167 16.3297 19.7854L10.7359 16.8529C9.8696 17.746 8.75643 18.3601 7.53897 18.6167C6.32151 18.8733 5.05517 18.7607 3.90209 18.2933C2.74901 17.8259 1.76168 17.025 1.06652 15.9931C0.371357 14.9612 0 13.7453 0 12.5011C0 11.2569 0.371357 10.041 1.06652 9.00908C1.76168 7.97718 2.74901 7.17626 3.90209 6.70885C5.05517 6.24144 6.32151 6.12883 7.53897 6.38543C8.75643 6.64203 9.8696 7.25616 10.7359 8.1492L16.3297 5.21545C16.2762 4.93865 16.2494 4.65736 16.2497 4.37545Z" fill="white"/>
</svg>
