<svg width="1920" height="274" viewBox="0 0 1920 274" fill="none" xmlns="http://www.w3.org/2000/svg">
<g clip-path="url(#clip0_36132_3243)">
<path d="M1992 205.078H240.598H226.609V219.041V259.176H174.151V157.967V144.004H160.162H69.2445H55.2556V157.967V259.176H1.05383V11.3774H55.2556V91.6481V105.611H69.2445H160.162H174.151V91.6481V11.3774H226.609V105.611H240.598V11.3774V-2.58496H226.609H174.151H160.162V11.3774V91.6481H69.2445V-2.58496H67.501H55.2556H1.05383H-12.9351V11.3774V259.176V273.138H1.05383H55.2556H67.501H69.2445V157.967H160.162V259.176V273.138H174.151H240.598V272.527V259.176V219.041H1992V205.078Z" fill="#F1F3F4"/>
</g>
<defs>
<clipPath id="clip0_36132_3243">
<rect width="1992" height="274" fill="white"/>
</clipPath>
</defs>
</svg>
