<svg width="86" height="62" viewBox="0 0 86 62" fill="none" xmlns="http://www.w3.org/2000/svg">
<g clip-path="url(#clip0_32002_1113)">
<path d="M0.228027 50.8488H9.53456L11.092 52.4145V60.2051L9.53456 61.7709H0.228027V50.8488ZM1.78545 60.2051H9.53456V52.4145H1.78545V60.2051Z" fill="#005191"/>
<path d="M9.64841 62H0V50.6006H9.64841L11.3388 52.3V60.3006L9.64841 62ZM0.474823 61.5226H9.45848L10.864 60.1096V52.51L9.45848 51.097H0.474823V61.5226ZM9.78136 60.4533H1.55742V52.1854H9.78136V60.4533ZM2.03224 59.976H9.30654V52.6437H2.03224V59.976Z" fill="#005191"/>
<path d="M14.9852 60.2051H24.3107V61.7709H14.9852L13.4468 60.2051V50.8488H14.9852V60.2051Z" fill="#005191"/>
<path d="M24.539 62H14.8906L13.2002 60.3006V50.6006H15.2324V59.9569H24.539V62ZM15.0995 61.5226H24.0831V60.4342H14.7766V51.0779H13.675V60.1096L15.0995 61.5226Z" fill="#005191"/>
<path d="M28.2044 57.0927V61.7709H26.647V50.8488H28.2044V55.5269H35.9535V50.8488H37.5109V61.7709H35.9535V57.0927H28.2044Z" fill="#005191"/>
<path d="M37.7391 62H35.7069V57.3218H28.4136V62H26.3813V50.6006H28.4136V55.2787H35.7069V50.6006H37.7391V62ZM36.2007 61.5226H37.2833V51.0779H36.2007V55.7561H27.9768V51.0779H26.8942V61.5226H27.9768V56.8445H36.2007V61.5226Z" fill="#005191"/>
<path d="M46.1336 60.2051H55.4402V61.7709H46.1336L44.5952 60.2051V50.8488H46.1336V60.2051Z" fill="#005191"/>
<path d="M55.6874 62H46.039L44.3486 60.3006V50.6006H46.3809V59.9569H55.6874V62ZM46.2479 61.5226H55.2316V60.4342H45.925V51.0779H44.8235V60.1096L46.2479 61.5226Z" fill="#005191"/>
<path d="M59.3528 50.8488H57.7954V61.7709H59.3528V50.8488Z" fill="#005191"/>
<path d="M59.5811 62H57.5488V50.6006H59.5811V62ZM58.0237 61.5226H59.1063V51.0779H58.0237V61.5226Z" fill="#005191"/>
<path d="M63.2464 53.5029V61.7709H61.689V50.8488H62.7906L67.1209 55.2023L71.4513 50.8488H72.5529V61.7709H70.9955V53.5029L67.1209 57.4173L63.2464 53.5029Z" fill="#005191"/>
<path d="M72.7811 62H70.7489V54.0758L67.1022 57.7419L63.4556 54.0758V62H61.4233V50.6006H62.8478L67.0832 54.8586L71.3187 50.6006H72.7431V62H72.7811ZM71.2427 61.5226H72.3253V51.0779H71.5656L67.1402 55.5269L62.7149 51.0779H61.9551V61.5226H63.0377V52.9301L67.1592 57.0736L71.2807 52.9301V61.5226H71.2427Z" fill="#005191"/>
<path d="M76.4461 50.8488H85.7526V52.4145H76.4461V55.5269H85.7526V57.0927H76.4461V60.2051H85.7526V61.7709H76.4461L74.8887 60.2051V52.4145L76.4461 50.8488Z" fill="#005191"/>
<path d="M85.9999 62H76.3515L74.6611 60.3006V52.3191L76.3515 50.6196H85.9999V52.6628H76.6934V55.2978H85.9999V57.3409H76.6934V59.976H85.9999V62ZM76.5414 61.5226H85.5251V60.4342H76.2185V56.8445H85.5251V55.7561H76.2185V52.1663H85.5251V51.0779H76.5414L75.136 52.4909V60.0905L76.5414 61.5226Z" fill="#005191"/>
<path d="M56.0861 7.71419C53.8639 7.79057 51.9456 9.03172 50.882 10.8266C50.882 10.8457 50.882 10.8457 50.882 10.8457C50.3312 11.7813 50.0273 12.8888 50.0273 14.0536C50.0273 15.2756 50.3692 16.4213 50.977 17.3951C50.977 17.3951 50.977 17.3951 50.977 17.4142C52.0026 19.3046 54.3767 20.6221 57.6815 21.5768C61.8599 22.7989 62.6576 25.4339 62.6576 25.4339V25.3957V23.7918V14.0536C62.6576 10.5402 59.8277 7.6951 56.333 7.6951C56.257 7.71419 56.1811 7.71419 56.0861 7.71419Z" fill="#E52328"/>
<path d="M48.3372 40.2513C48.3751 40.1749 48.4131 40.1176 48.4511 40.0413V40.0222C49.4767 38.0554 49.3628 35.7641 48.3372 33.931C48.3372 33.931 48.3372 33.9119 48.3182 33.9119C47.7864 32.9763 46.9887 32.1552 45.982 31.5824C44.9184 30.9714 43.7599 30.704 42.6393 30.7422C42.6393 30.7422 42.6393 30.7422 42.6203 30.7422C40.4931 30.704 38.1759 32.117 35.6879 34.5229C32.554 37.559 29.895 36.967 29.895 36.967C29.895 36.967 29.895 36.967 29.933 36.9861L31.3195 37.7881L39.7334 42.619C42.7532 44.3566 46.6088 43.3064 48.3372 40.2513Z" fill="#E52328"/>
<path d="M56.371 23.1617C56.352 23.1617 56.352 23.1617 56.352 23.1617C55.2694 23.1617 54.1678 23.429 53.1612 24.0209C52.1165 24.632 51.2998 25.5103 50.7491 26.5032C50.7491 26.5032 50.7491 26.5032 50.7301 26.5223C49.6285 28.3554 49.6665 31.0859 50.4831 34.4466C51.5278 38.6855 49.6475 40.7096 49.6475 40.7096C49.6475 40.7096 49.6475 40.7096 49.6854 40.6905L51.0719 39.8885L59.4478 35.0194C62.4677 33.2627 63.5123 29.3865 61.765 26.3505C61.727 26.2741 61.689 26.2168 61.651 26.1595C61.651 26.1595 61.651 26.1404 61.632 26.1404C60.4734 24.231 58.4412 23.1808 56.371 23.1617Z" fill="#E52328"/>
<path d="M29.9138 35.7259C32.136 35.6495 34.0543 34.4084 35.1179 32.6135C35.1179 32.5944 35.1179 32.5944 35.1179 32.5944C35.6687 31.6588 35.9726 30.5513 35.9726 29.3865C35.9726 28.1645 35.6307 27.0188 35.0229 26.045C35.0229 26.045 35.0229 26.045 35.0229 26.0259C33.9973 24.1355 31.6232 22.818 28.3184 21.8633C24.14 20.6412 23.3423 18.0062 23.3423 18.0062V18.0444V19.6483V29.3865C23.3423 32.8999 26.1722 35.745 29.6669 35.745C29.7429 35.745 29.8189 35.745 29.8948 35.745C29.8948 35.7259 29.9138 35.7259 29.9138 35.7259Z" fill="#E52328"/>
<path d="M37.4919 3.39883V3.41792C36.4663 5.38466 36.5803 7.67601 37.6059 9.50908C37.6059 9.50908 37.6059 9.52818 37.6249 9.52818C38.1757 10.4638 38.9544 11.2849 39.961 11.8577C41.0246 12.4687 42.1832 12.7361 43.3038 12.6979C43.3038 12.6979 43.3038 12.6979 43.3228 12.6979C45.45 12.7361 47.7671 11.3231 50.2552 8.91715C53.389 5.88112 56.048 6.47305 56.048 6.47305C56.048 6.47305 56.048 6.47305 56.0101 6.45396L54.6236 5.65199L46.2287 0.84016C43.1898 -0.897444 39.3343 0.152756 37.6059 3.20788C37.5679 3.26517 37.5299 3.34155 37.4919 3.39883Z" fill="#E52328"/>
<path d="M29.6859 20.2593C29.7049 20.2593 29.7049 20.2593 29.7049 20.2593C30.7875 20.2593 31.8891 19.992 32.8957 19.4001C33.9403 18.789 34.757 17.9107 35.3078 16.9178C35.3078 16.9178 35.3078 16.9178 35.3268 16.8987C36.4474 15.0656 36.3904 12.3351 35.5737 8.97444C34.5291 4.73545 36.4094 2.71143 36.4094 2.71143C36.4094 2.71143 36.4094 2.71143 36.3714 2.73052L34.9849 3.53249L26.59 8.4016C23.5701 10.1583 22.5255 14.0345 24.2729 17.0705C24.3109 17.1469 24.3489 17.2042 24.3868 17.2615C24.3868 17.2615 24.3868 17.2806 24.4058 17.2806C25.5834 19.19 27.6156 20.2402 29.6859 20.2593Z" fill="#E52328"/>
</g>
<defs>
<clipPath id="clip0_32002_1113">
<rect width="86" height="62" fill="white"/>
</clipPath>
</defs>
</svg>
